<?xml version="1.0" standalone="no"?>
<!DOCTYPE svg PUBLIC "-//W3C//DTD SVG 1.1//EN" "http://www.w3.org/Graphics/SVG/1.1/DTD/svg11.dtd" >
<svg xmlns="http://www.w3.org/2000/svg">
<metadata></metadata>
<defs>
<font id="vhiezelvia_scvhiezelviascript" horiz-adv-x="991" >
<font-face units-per-em="2048" ascent="1536" descent="-512" />
<missing-glyph horiz-adv-x="675" />
<glyph horiz-adv-x="0" />
<glyph horiz-adv-x="682" />
<glyph horiz-adv-x="0" />
<glyph horiz-adv-x="0" />
<glyph unicode="&#xd;" horiz-adv-x="675" />
<glyph unicode=" "  horiz-adv-x="675" />
<glyph unicode="&#x09;" horiz-adv-x="675" />
<glyph unicode="&#xa0;" horiz-adv-x="675" />
<glyph unicode="!" horiz-adv-x="487" d="M0 113q0 54 47 110t76 56q15 0 55 -7q37 -6 37 -55q0 -207 -109 -207q-106 0 -106 103zM109 414q0 32 55 184q61 168 131 326q83 190 151 313q77 139 121 139q75 0 135 -34.5t60 -77.5q0 -15 -4.5 -19.5t-13.5 -7t-15 -8.5q-37 -37 -111 -150q-76 -117 -159 -258 q-83 -146 -142 -274q-61 -131 -61 -195q0 -26 -29 -26q-45 0 -81.5 22.5t-36.5 65.5z" />
<glyph unicode="&#x22;" horiz-adv-x="358" d="M0 1098q0 76 96 186q95 109 152 109q16 0 16 -19t-39 -78q-40 -57 -61 -129q44 52 88.5 86.5t73.5 34.5q16 0 16 -20q0 -21 -57 -107q-56 -89 -56 -172q0 -30 11 -41l2 -6q0 -27 -41 -27q-62 0 -92.5 23.5t-30.5 52.5q0 5 4 33q-82 15 -82 74z" />
<glyph unicode="#" horiz-adv-x="1660" d="M0 403q0 37 33 37q9 0 22 -11t17 -11q18 0 204 28q22 48 113 233.5t107 213.5q-223 -21 -228 -21q-86 0 -86 74q0 57 35 92q20 23 35 23q12 0 18 -27q9 -24 52 -24q98 0 239 16l107 199q46 81 53 92q20 20 41 20q50 0 91.5 -31.5t41.5 -64.5q0 -26 -96 -201q16 1 41 1.5 t63 1t68 1.5q159 4 180 5q133 284 219 284q42 0 75.5 -32.5t33.5 -69.5q0 -22 -84 -176q81 -6 134.5 -39t53.5 -66q0 -14 -6 -14q-3 0 -27 8.5t-75.5 18t-120.5 12.5l-238 -463q119 -12 144 -37q16 -22 16 -41q0 -20 -8 -31q-15 -12 -25 -12q-6 0 -6 4q4 2 4 8q0 3 -11 1 t-22.5 -4.5t-17.5 1.5q-49 20 -117 23q-49 -90 -94 -260q-43 -164 -64 -205q-10 -19 -84 8q-73 24 -73 121q0 49 96 311q-65 -13 -207 -16q-130 -3 -203 -21q-139 -254 -139 -335q0 -25 -31 -25q-8 0 -67 41q-57 39 -57 84q0 41 59 174q-37 -6 -59 -6q-86 0 -119 39 q-31 42 -31 69zM508 479q67 9 194 15q129 6 195 12l209 452l-371 -32q-16 -26 -107 -206.5t-120 -240.5z" />
<glyph unicode="$" horiz-adv-x="776" d="M6 377q15 71 68 133q52 61 102 76q68 20 105 -60q4 27 22 97q-47 -9 -61 -9q-44 0 -95 45q-49 46 -49 142q0 137 115 252q116 113 225 137q24 110 29 115l10 26q9 2 40 -11t40 -30q3 -8 -16 -100q198 -26 198 -141q0 -85 -108 -168q-107 -82 -139 -82q-26 0 -39 16 l-15 -61q75 0 140 -62t65 -104q0 -94 -127 -248q-128 -152 -209 -176q-21 -112 -8 -131q6 -19 -12 -25q-5 -2 -43 10q-36 13 -45 39q-8 13 8 109q-138 15 -178 76q-39 62 -23 135zM76 393q-47 -105 57 -96q49 3 105 35l24 108q-30 -16 -53 -10q-3 2 -4 4q16 44 2 88 q-15 47 -37 25q-47 -44 -94 -154zM223 733q0 -8 10 -8q15 0 97 16q28 141 63 265q-71 -66 -120.5 -143t-49.5 -130zM358 414q156 137 156 237q0 19 -20 19q-28 0 -80 -15q-42 -173 -56 -241zM459 844q31 14 94 110q65 103 65 146q0 18 -32 18q-29 0 -66 -18 q-33 -154 -61 -256z" />
<glyph unicode="%" horiz-adv-x="989" d="M0 209q0 74 109 242q105 161 243 335q139 178 252 308l133 151q30 30 21 62q-9 30 20 30q26 0 94 -45q70 -43 70 -108q0 -48 -117 -189q-111 -131 -256 -309q-149 -183 -256 -338q-114 -170 -114 -272q0 -28 -20.5 -39.5t-41.5 -11.5q-20 0 -78 49q-59 50 -59 135z M37 987q0 70 49 164q57 102 109 149q54 48 149 33q94 -15 94 -88q0 -93 -100 -246q-98 -155 -170 -155q-49 0 -90 37.5t-41 105.5zM141 936q0 -13 15 -26t26 -13q55 0 113 102q63 108 72 179q1 11 -10 19.5t-22 11.5l-11 3q-67 0 -125 -110t-58 -166zM502 156q0 67 49 161 q58 105 106 150q54 48 150 33q94 -15 94 -88q0 -93 -100 -246q-99 -156 -170 -156q-49 0 -89 38.5t-40 107.5zM604 102q0 -11 16 -23.5t25 -12.5q57 0 115 102q59 103 71 176q0 12 -10.5 21t-21.5 11l-11 3q-68 0 -126 -111q-58 -110 -58 -166z" />
<glyph unicode="&#x26;" horiz-adv-x="1263" d="M0 385q0 150 78 320q79 166 239 237q-79 72 -79 135q0 80 84 158q87 78 170 96q59 12 151 -57t127 -39q30 26 20 -45q-2 -10 -4 -21q-15 -95 -59 -57q-61 38 -109.5 55t-78.5 16.5t-51.5 -17.5t-31.5 -35t-15.5 -48.5t-6 -44.5t-0.5 -37v-6v-10l4 1q4 0 10.5 1t14.5 1.5 t18 0.5t20.5 -0.5t22 -2.5t21.5 -5q64 115 82 115q30 0 65 -21.5t35 -36.5q0 -22 -86 -137t-86 -184q0 -19 -43 -19q-13 0 -37 23t-24 47q0 7 28 80q-160 -44 -213 -238q-53 -195 -53 -346q0 -77 35.5 -121.5t107.5 -44.5q195 0 310 154q114 156 114 248q0 59 -41 59 q-57 0 -202 -43q-146 -41 -177 -72q-9 -6 -12 -6q-24 0 -24 25q0 18 16.5 58t44.5 67q59 59 277 100q220 41 321 41q31 0 83 -2t67 -2q22 0 32 29q9 30 15 30q11 0 17.5 -17t6.5 -32q0 -40 -21.5 -91t-47.5 -77q-17 -14 -74 -14q-29 0 -113 5t-137 5q82 -12 115 -51 q20 -17 20 -59q0 -110 -147 -273q-143 -162 -416 -162q-219 0 -301 125t-82 242z" />
<glyph unicode="'" horiz-adv-x="276" d="M0 1112q0 78 96 188q95 109 152 109q16 0 16 -20q0 -21 -57 -107q-55 -88 -55 -172q0 -30 10 -43q2 0 2 -6q0 -25 -39 -25q-63 0 -94 23.5t-31 52.5z" />
<glyph unicode="(" horiz-adv-x="462" d="M0 350q0 149 45 330q45 183 123 352q76 166 182 281q105 114 223 114q97 0 172 -63q78 -63 78 -80q0 -6 -10 -6q-15 0 -53 15.5t-51 11.5q-121 -38 -220 -197q-95 -153 -159 -354q-61 -191 -82 -381q-18 -186 16 -271q24 -62 66 -53q43 9 43 -12q0 -25 -56 -25 q-77 0 -114 -2q-54 0 -127 76q-76 76 -76 264z" />
<glyph unicode=")" horiz-adv-x="591" d="M-238 63q0 7 13 7q11 0 49 -15.5t53 -11.5q116 33 217 195q97 156 160 354q61 190 82 379q21 185 -14 274q-23 60 -68 51q-41 -9 -41 15q0 22 57 22q74 0 109 2q57 3 133 -73q74 -74 74 -265q0 -150 -45 -331q-46 -185 -123 -353q-74 -160 -182 -278q-104 -113 -222 -113 q-96 0 -174 60t-78 81z" />
<glyph unicode="*" horiz-adv-x="679" d="M0 713q0 8 15.5 34.5t33.5 38.5q16 14 180 -4l-49 66q-16 22 -16 31q3 24 29 47q8 4 10 2q-2 2 -2 0q0 -4 8 -19l13 -19q14 -19 32.5 -43.5t36.5 -47.5q92 172 112 172q31 0 66 -21.5t35 -36.5q0 -11 -37 -69l135 65q5 3 11.5 10.5t9.5 8.5q1 1 2.5 0.5t3.5 -3t4 -7.5 q15 -38 4 -74q-3 -10 -39 -29q-10 -3 -147 -70q94 -23 141 -28q9 -1 14.5 -0.5t11 1.5t7.5 1q7 0 4 -14q-9 -54 -47 -76q-10 -8 -56 2q-2 0 -133 24q78 -108 78 -131q-3 -32 -27 -49q-6 -6 -12 2v4q3 19 -41 84l-53 70q-94 -162 -94 -207q0 -16 -41 -16q-14 0 -38 22t-24 45 q0 17 60 146l-47 -25q-99 -46 -107 -76q0 -4 -4 -4q-13 -9 -16 4q-5 7 -6 30.5t4 47.5q11 24 151 96l-6 2q-126 15 -152 -2q-2 -2 -6 -2q-12 3 -12 17z" />
<glyph unicode="+" d="M0 496q0 11 16 73q13 51 52 90q37 37 301 48q-11 150 -11 221q0 85 17 102q19 21 72 42.5t90 21.5q28 0 28 -11q0 -3 -8 -23t-8 -36q0 -4 2 -49.5t4.5 -121t3.5 -146.5q59 0 211 -5q26 -1 51 -2l37.5 -1.5t15.5 -0.5q15 0 35 8.5t25 8.5q10 0 10 -29q0 -37 -21 -90 t-42 -72q-16 -16 -103 -16q-68 0 -221 10q-11 -265 -47 -301q-38 -38 -90 -51q-62 -16 -74 -16q-24 0 -24 26q0 6 6 12q51 51 51 267q0 11 -1 34.5t-1 36.5h-72q-217 0 -266 -49q-6 -6 -12 -6q-27 0 -27 25z" />
<glyph unicode="," horiz-adv-x="303" d="M-94 -123q0 20 55 105t55 172q0 26 -10 43q-2 0 -2 6q0 24 39 24q61 0 93 -23.5t32 -51.5q0 -79 -96 -189q-93 -106 -150 -106q-16 0 -16 20z" />
<glyph unicode="-" d="M0 436q0 10 16 72q14 54 52 92q28 28 153 37q140 10 271 10q101 0 253 -4q34 -1 65 -2t46 -1.5t18 -0.5q15 0 35 7t25 7q10 0 10 -28q0 -35 -22 -90q-22 -56 -41 -72q-17 -17 -103 -17q-60 0 -221 11q-147 10 -252 10q-215 0 -266 -51q-6 -6 -12 -6q-27 0 -27 26z" />
<glyph unicode="." horiz-adv-x="393" d="M117 242q0 41 31 63.5t75 22.5q46 0 82.5 -25t36.5 -65q0 -56 -47 -86q-48 -31 -70 -31q-25 0 -67 31q-41 35 -41 90z" />
<glyph unicode="/" horiz-adv-x="868" d="M0 131q0 64 102 275q104 215 228 440q126 230 229 409q109 183 111 183q157 0 157 -142q0 -44 -104 -227q-134 -239 -227 -399q-135 -239 -226 -414q-102 -196 -102 -260q0 -27 20 -27q19 0 19 -14q0 -16 -29 -16q-32 0 -106 53q-72 54 -72 139z" />
<glyph unicode="0" horiz-adv-x="1015" d="M0 397q0 177 133 437q133 254 287 399q57 53 142.5 79t172 20.5t163 -33t124.5 -84.5t49 -130q0 -116 -78 -301q-77 -184 -190 -354q-110 -171 -236 -297q-126 -123 -221 -123q-111 0 -229 92q-117 94 -117 295zM276 256q0 -33 41 -68q40 -32 68 -32q69 0 153.5 80 t154.5 195.5t122.5 245.5t65.5 228q6 57 -54 72q-59 18 -61 18q-88 0 -176 -88t-158 -207q-68 -117 -112 -242.5t-44 -201.5z" />
<glyph unicode="1" horiz-adv-x="724" d="M-47 174q0 122 144.5 456t279.5 541q-135 -108 -152 -108q-28 0 -75 41q-48 45 -48 72q0 22 23 22q3 0 11.5 -11t17.5 -11q94 0 225 88q132 88 139 86q81 -27 123 -99q43 -67 55 -110q3 -13 -84 -144q-86 -134 -188 -305q-102 -176 -191 -364q-86 -189 -86 -318 q0 -31 -98 6q-96 41 -96 158z" />
<glyph unicode="2" horiz-adv-x="933" d="M-98 121q0 98 139 225q174 155 303 262q161 133 289 264q125 131 98 236q-30 106 -108 115q-80 9 -160 -33q-78 -43 -141 -121q-62 -77 -62 -145v-31q0 -27 -18 -27q-32 0 -97 56t-65 131q0 88 113 186t370 98q179 0 268 -145q91 -148 91 -234q0 -49 -35.5 -115 t-85.5 -128.5t-128.5 -142t-140 -136t-144.5 -132.5t-120 -111l183 10q174 9 221 33q30 16 84 59q9 7 17 -16q5 -17 9 -46q11 -86 11 -127q0 -74 -33 -88q-37 -16 -152 -16q-102 0 -301 -1t-297 -1q-34 0 -71 16q-37 15 -37 105z" />
<glyph unicode="3" horiz-adv-x="1153" d="M0 453q39 -29 117 -84q116 -82 264 -97q158 -18 293 76t135 295q0 31 -59 96q-72 79 -84 90q-46 -32 -60 -69q-15 -40 -39 -25q-87 47 -108 68q-17 13 28 67q47 58 111 123q48 49 126 125t91 90q-121 -39 -252 -67q-126 -27 -164 -27q-63 0 -133 88q-69 87 -69 123 q0 29 36 -4t111 -33q41 0 143 6l207 17l189 18l82 8q25 0 79 -51q56 -53 56 -115q0 -31 -117 -102q-116 -70 -235 -174q79 -55 161 -150q92 -103 92 -167q0 -59 -22.5 -130.5t-73 -149.5t-120 -141.5t-175 -105t-227.5 -41.5q-87 0 -157 37t-111 90.5t-68 118t-37 113.5 t-10 84z" />
<glyph unicode="4" horiz-adv-x="970" d="M0 655q0 31 86 140q76 99 201 227q114 117 233 213q116 94 178 94q61 0 113 -94q51 -89 51 -117q-48 -45 -67 -16q-19 31 -31 31q-31 0 -125 -82q-95 -80 -199 -181q-111 -108 -184 -186q-80 -86 -80 -100q41 4 125 10l231 24q67 126 142 234q70 104 117 104q48 0 77 -63 q33 -59 33 -113q0 -19 -9 -27t-23.5 -12t-20.5 -10q-30 -29 -70 -94q25 -5 46.5 -11.5t39 -13t27 -11t21.5 -11.5l12 -6l1 -6q1 -6 1 -9q0 -26 -13.5 -56t-29.5 -30q-9 0 -24.5 12t-48 29t-77.5 27q-71 -132 -121 -262q-53 -145 -53 -223q0 -56 -43 -56q-54 0 -108 60 t-54 110q0 33 36 129t91 207q-139 -31 -252 -70q-110 -38 -137 -38q-31 0 -61 88q-31 91 -31 159z" />
<glyph unicode="5" horiz-adv-x="937" d="M0 121q6 4 20 12q22 16 25 -10q0 -14 31 -53q34 -37 78 -37q70 0 152 47t153 118.5t131 151.5t94.5 151.5t34.5 112.5q0 73 -76 88q-82 17 -164 3q-87 -15 -164 -43q-73 -27 -73 -35q0 -71 -41 -68q-40 3 -66 29q-29 29 -80 155q-53 133 -53 166q0 26 90 154 q94 129 119 184q-39 62 -39 101q0 34 41 34q14 0 47 -39q36 -36 78 -36q28 0 108 -0.5t109 0t81.5 3t84.5 9.5t59 18q6 -29 -16 -127q-21 -95 45 -147q6 -6 -11 -12q-6 -2 -10 -2q-47 0 -81 88q-80 -26 -201 -17q-137 10 -187 8q15 -21 15 -28q0 -21 -49 -109l-80 -141 q164 30 297 35q146 9 243 -45q88 -54 117 -156q33 -98 33 -197q0 -78 -52.5 -184t-132 -199.5t-184 -159t-198.5 -65.5q-201 0 -265 113q-63 111 -63 129z" />
<glyph unicode="6" horiz-adv-x="1021" d="M0 418q0 94 59 248q57 152 154 303q95 148 215 256t238 108q14 0 26.5 -1.5t19.5 -3t20.5 -7t18 -7.5t23 -12t25.5 -14q85 -47 133 -100q53 -59 53 -76q0 -21 -19.5 -38t-33.5 -17q-17 0 -17 16v27q0 45 -90 45q-125 0 -272 -197q-148 -199 -250 -381q84 81 139 158 q55 76 209 70q51 -3 119 -62q70 -58 70 -137q0 -71 -53.5 -174t-128.5 -193t-161.5 -154.5t-146.5 -64.5q-164 0 -257 98.5t-93 309.5zM393 270q0 -18 10 -41h23q119 0 207 131t88 226q0 35 -33 35q-130 0 -213 -121q-82 -119 -82 -230z" />
<glyph unicode="7" horiz-adv-x="856" d="M0 158v2q0 55 92 250t180 356q-53 2 -112 10q-45 6 -45 98q0 17 14 17q5 0 16 -8q47 -49 177 -33q59 98 100 151q57 74 108 134q-211 -45 -303 -45q-55 0 -104 79t-49 113q0 29 41 2q43 -27 86 -27q137 0 331 37q197 37 224 37q33 0 45 -69q12 -71 12 -113 q0 -15 1.5 -36.5t1 -31t-4 -21t-12.5 -20.5q-79 -79 -166 -182q70 4 78 4q35 0 61.5 -16t26.5 -45q0 -87 -29 -80q-3 0 -6 2q-29 15 -51 37q-20 14 -97 14q-8 0 -27 -1t-28 -1q-119 -149 -227 -360q-110 -216 -113 -363q-1 -18 -32 -28.5t-56 -10.5q-40 0 -88 66 q-45 65 -45 82z" />
<glyph unicode="8" horiz-adv-x="999" d="M-102 319q0 92 104 193q96 93 244 209q-85 71 -132.5 135t-47.5 131q0 152 198 250q197 101 436 45q38 -10 20 -25q-14 -10 -38 -10q-102 22 -246 -53q-145 -77 -145 -199q0 -69 102 -164q153 115 262 216q117 108 117 194q0 62 -14 59q-15 0 -15 15q0 22 33 22 q33 -4 123 -41q98 -37 98 -155q0 -90 -131 -203q-138 -122 -288 -238q87 -79 136.5 -148t49.5 -138q0 -13 -4 -36.5t-18.5 -63t-37 -78.5t-64.5 -81t-96.5 -73.5t-137 -51.5t-181.5 -20q-135 0 -231 96t-96 213zM113 201q0 -41 67 -41q88 0 217 69q131 70 131 172 q0 83 -96 187q-143 -116 -225 -205q-94 -101 -94 -182z" />
<glyph unicode="9" horiz-adv-x="813" d="M0 717q0 36 41 139q38 95 106 203q61 96 150 182q83 80 168 80q128 0 172 -33q52 -39 92 -76q5 2 13.5 8t13 6.5t18.5 -1.5q207 -89 103 -242l-86 -143q-109 -189 -168 -305q-92 -180 -166 -349q-74 -177 -74 -266q0 -55 -37 -55q-52 0 -110 49q-60 48 -60 100 q0 54 64 289q66 244 139 389q-175 -164 -223 -164q-69 0 -112.5 53.5t-43.5 135.5zM225 735q0 -18 15 -18q32 0 92.5 53t121.5 126.5t100.5 124t53.5 69.5q-16 22 -55 22q-61 0 -141 -77t-133.5 -167t-53.5 -133z" />
<glyph unicode=":" horiz-adv-x="319" d="M80 514q0 41 31 63.5t75 22.5q46 0 82.5 -25t36.5 -65q0 -56 -47 -86q-48 -31 -70 -31q-28 0 -67 33q-41 35 -41 88zM80 858q0 41 31 63.5t75 22.5q46 0 82.5 -25t36.5 -65q0 -56 -47 -86q-48 -31 -70 -31q-28 0 -67 33q-41 35 -41 88z" />
<glyph unicode=";" horiz-adv-x="319" d="M0 223q0 20 55 105q58 88 58 174q0 32 -11 43q-2 0 -2 6q0 24 41 24q61 0 92 -23.5t31 -51.5q0 -84 -98 -191q-93 -106 -150 -106q-16 0 -16 20zM80 758q0 41 31 63.5t75 22.5q46 0 82.5 -25t36.5 -65q0 -56 -47 -86q-48 -31 -70 -31q-28 0 -67 33q-41 35 -41 88z" />
<glyph unicode="&#x3c;" horiz-adv-x="573" d="M2 575q49 52 256 181q206 131 238 131q27 0 39 -58q12 -59 12 -73q-1 -9 -90 -57t-178 -97.5t-89 -62.5l22 -21q21 -22 53 -54t64 -65.5t54.5 -63t22.5 -42.5q0 -22 -41 -49t-72 -27q-10 0 -14 4q-9 3 -156 166q-141 165 -121 188z" />
<glyph unicode="=" horiz-adv-x="706" d="M0 434q0 18 12.5 56.5t34.5 60.5q21 21 111 27q79 8 192 8q70 0 180 -4q55 -2 93 -2q10 0 25 5t18 5q8 0 8 -21q0 -25 -15.5 -63.5t-29.5 -50.5q-13 -13 -74 -13q-38 0 -157.5 7.5t-180.5 7.5q-154 0 -188 -37q-3 -1 -6 -3q-4 -1 -5 -1q-18 0 -18 18zM0 678 q0 18 12.5 56.5t34.5 60.5q20 20 111 26q79 8 192 8q70 0 180 -4q55 -2 93 -2q10 0 25 5.5t18 5.5q8 0 8 -21q0 -72 -45 -117q-10 -10 -74 -10q-38 0 -157.5 7t-180.5 7q-155 0 -188 -36q-3 -1 -5 -2t-3.5 -2t-2.5 -1q-18 0 -18 19z" />
<glyph unicode="&#x3e;" horiz-adv-x="583" d="M0 348q0 7 179 103t179 114q-2 -2 -55.5 49.5t-107.5 112.5t-54 82q0 23 39 49q44 29 76 29q2 0 14 -4q1 -2 34 -37t76 -83t85 -98t66 -89t14 -48q-50 -53 -257.5 -182t-236.5 -129q-27 0 -39 55q-12 59 -12 76z" />
<glyph unicode="?" horiz-adv-x="827" d="M0 70q0 41 31 63.5t75 22.5q46 0 82.5 -26t36.5 -67q0 -56 -47 -83q-48 -31 -69 -31q-29 0 -68 33q-41 35 -41 88zM84 1100q0 73 139 176q135 100 262 100q83 0 193 -90q110 -88 110 -231q0 -42 -65 -160q-58 -103 -148 -240q-36 -56 -151 -227l-86 -125q-41 -59 -41 -98 t-29 -39q-38 0 -102 55q-64 58 -64 113q0 26 86 135q141 183 189 248q113 153 188 274q88 137 88 223q0 46 -61 46q-82 0 -203 -80t-121 -179q0 -32 16.5 -45.5t30.5 -13.5q15 0 15 -16q0 -10 -9 -27.5t-20 -17.5q-54 0 -135 75q-82 76 -82 144z" />
<glyph unicode="@" horiz-adv-x="1828" d="M49 606q0 374 207 578q210 204 481 250q268 49 535 -48q265 -95 373 -319q66 -138 51 -305q-15 -164 -86 -303q-74 -144 -183 -232q-112 -92 -235 -92q-24 0 -45 6q-158 30 -158 197q0 47 19 115l18 65q-17 0 -119 -141q-110 -152 -155 -197q-43 -43 -64 -43 q-24 0 -106 29q-76 27 -76 131q0 100 59.5 231.5t145 226.5t153.5 95q79 0 140 -64q63 -63 63 -108q0 -9 -3 -14t-9.5 -6.5t-11.5 -2t-14.5 0.5t-14.5 1q-63 0 -123 -55t-98.5 -129.5t-62 -142.5t-23.5 -101q0 -14 8 -14q3 0 72 93t163.5 212t149.5 168q39 31 53 31 q54 0 88 -51q33 -47 33 -70q0 -33 -35 -123q-37 -95 -45 -158q32 -22 104 35q76 60 144 156q67 97 112 221q46 118 21 225q-53 201 -260 277q-205 79 -436 24q-231 -56 -410 -247q-182 -191 -182 -531q0 -228 116 -411q121 -183 547 -183q255 0 492 135q237 138 237 248 q0 19 15 19q23 0 59 -39q39 -36 39 -68q0 -134 -211 -284q-211 -152 -528 -152q-123 0 -242.5 23t-232.5 68t-208.5 117.5t-167.5 165.5t-112.5 219t-40.5 271z" />
<glyph unicode="A" horiz-adv-x="1327" d="M0 193q9 40 39 40q6 0 6 -6l-4 -12q-2 -14 8 -21.5t33 -7.5q152 0 518 312q-87 15 -108 30q-60 39 -60 83q0 12 4 24q15 41 21 37q2 -1 3 -10q0 -11 25 -25q51 -33 215 -53q252 226 492 481q211 222 303 330q17 10 39 10q63 0 72 -78q8 -47 8 -83q0 -25 -4 -44 q-3 -13 -19 -26q-29 -24 -89.5 -129.5t-127 -245t-128.5 -308.5t-89 -301q-9 -37 -12 -65.5t-1.5 -41t3.5 -24t2 -14.5q-8 -35 -82 -35q-79 0 -137 43q-49 39 -49 83q0 9 2 18q7 48 26 133q21 93 52 176q-28 -3 -60 -3q-68 0 -153 13h-29q-173 -173 -346 -315 q-173 -144 -236 -144q-58 0 -98 76q-42 79 -39 103zM821 573q13 0 38 -1t38 -1q14 -1 27 -1q45 0 84 8q78 187 178 380q-284 -303 -365 -385z" />
<glyph unicode="B" horiz-adv-x="1359" d="M0 848q0 192 258 342q261 153 586 153q109 0 194 -28.5t132.5 -75t69.5 -106.5q15 -42 14 -84q0 -19 -2 -37q-10 -62 -49 -122t-103 -106q196 -135 196 -313q0 -89 -44.5 -168.5t-113 -134t-151 -94.5t-159.5 -59t-138 -19q-130 0 -201 39q-71 41 -90 63q-1 0 -3.5 2 t-2.5 4q-78 -47 -145 -47q-47 0 -88 23q-63 35 -63 43q0 2 4 2q6 1 18 -2q1 0 3 -1q16 0 60 42q45 39 113 160q64 108 131 266t107 300q36 129 36 214v16l-65 -30q-185 -96 -248 -189q-63 -89 -63 -233q0 -6 0.5 -15.5t1 -16t0 -13t-3 -9.5t-7.5 -2q-42 5 -114 99 q-70 91 -70 137zM494 219q44 -6 88 -6q180 0 354 98q178 99 178 260q0 36 -36.5 83.5t-76.5 68.5q-193 -105 -335 -105q-13 0 -19 3q-75 -253 -153 -402zM639 1153l47 -31q32 -36 32 -125q0 -94 -36 -247q13 -3 28 -3q56 0 140 48q106 61 187 153t81 158q0 48 -26 77t-70 36 q-35 5 -72 5h-22q-50 -2 -107.5 -16.5t-99.5 -27t-82 -27.5z" />
<glyph unicode="C" horiz-adv-x="899" d="M2 565q12 113 86.5 248t185.5 258q115 123 235.5 199t219.5 76q63 0 197 -64q130 -57 130 -138q0 -5 -1 -11q-6 -47 -58 -154q-55 -116 -118 -213q-66 -106 -142 -191q-69 -81 -119 -81q-45 0 -90 45q-41 41 -41 66q0 24 21 24q3 0 10.5 -1t11.5 -1q27 0 95 71 q64 69 135 166q66 89 123 178q56 86 59 111q0 10 -10 10q-80 0 -199 -73q-111 -67 -231 -187q-106 -106 -201 -254q-86 -139 -98 -274q-4 -36 -4 -66q0 -178 125 -178q154 0 383 209q2 2 8 2q30 0 30 -50q0 -12 -2 -28q-3 -30 -26 -53l-111 -123q-83 -92 -182 -92 q-42 0 -119 6t-137 57q-94 79 -135 246q-32 145 -32 233q0 14 1 27z" />
<glyph unicode="D" horiz-adv-x="1449" d="M0 934q0 178 233 295q234 120 512 129q20 1 39 0q258 0 476 -111q235 -119 235 -416q0 -112 -100 -233q-100 -120 -246 -233q-148 -114 -305 -199q-151 -81 -281 -125q-63 -21 -122 -21q-87 0 -161 47q-82 52 -109 134q-10 29 -10 53q0 44 31 74q9 9 21 16 q67 -111 164 -123q51 70 127 221q69 138 123 289q37 103 59 191t26 162q1 11 1 22q0 57 -19 88q29 -10 82 -39q48 -26 55 -33q31 -37 31 -121q0 -35 -6 -79q-18 -147 -66.5 -311t-107.5 -300q126 58 256 146l166 133q231 220 231 362q0 46 -24 84q-97 160 -336 181 q-37 3 -74 3q-206 0 -418 -98q-250 -114 -250 -370v-72h-3q-52 0 -140 94q-90 101 -90 160z" />
<glyph unicode="E" horiz-adv-x="1095" d="M2 328q-1 13 -1 26q0 161 103 328q111 182 342 287q-39 33 -64.5 73.5t-25.5 77.5q0 108 107 172t213 64q64 0 111 -6t76 -16t46.5 -27.5t24 -35t7 -44.5t-2.5 -50t-6.5 -58t-3.5 -62q0 -6 -10 -6q-41 0 -72 35.5t-31 78.5q0 63 -61 70q-7 1 -14 1q-53 0 -111 -40 q-72 -50 -73 -111q0 -17 7 -34l15 -35q99 24 172 24q51 0 122 -41q66 -38 66 -83v-7q-4 -44 -9 -45q-2 0 -5 6q-9 25 -47 25q-360 -3 -500 -205q-113 -164 -114 -364q0 -40 5 -80q10 -88 72 -150q65 -65 149 -65q160 0 232 90q74 90 98 190q16 65 16 109q0 70 -40 88 q-52 30 -52 33q23 1 44 1q156 0 208 -79q32 -49 32 -107q0 -47 -21 -100q-47 -114 -177 -215q-131 -101 -311 -113q-28 -2 -54 -2q-210 0 -325 107q-128 119 -137 295z" />
<glyph unicode="F" horiz-adv-x="1163" d="M0 45q0 18 18 18q7 0 9 -2q9 -14 51 -8q67 9 201 170q127 153 264 357q130 196 229 378t102 230q0 6 -10 16q-19 11 -77 11q-13 0 -29 -1q-82 -3 -174 -30q-95 -28 -168 -84q-75 -57 -78 -152q-1 -7 -1 -13q0 -41 23 -67q26 -30 52 -22q8 0 8 -6q0 -38 -68 -47 q-3 -1 -6 -1q-31 0 -115 54q-89 62 -86 117q3 105 121.5 203t281 154t304.5 56q14 0 20 -2l254 -18q188 -10 220 -10q355 0 393 36q8 5 12 10.5t4 9t1.5 5.5t4.5 2q9 0 9 -22q0 -6 -1 -13q-12 -66 -86 -143q-70 -76 -145 -76q-14 0 -177.5 21.5t-307.5 25.5 q-34 -199 -164 -500q245 0 274 31q5 5 7 9.5t2 6.5t1.5 3.5t4.5 1.5q10 0 10 -29q0 -53 -47 -115q-47 -59 -105 -59q-27 0 -198 41q-169 -354 -353 -549q-43 -43 -116 -55q-31 -4 -66 -4q-72 0 -162 18q-134 27 -137 33q-4 4 -4 10z" />
<glyph unicode="G" horiz-adv-x="1011" d="M2 565q12 113 86.5 248t185.5 258q115 123 235.5 199t219.5 76q63 0 197 -64q130 -57 130 -138q0 -6 -1 -11q-6 -47 -58 -154q-55 -116 -118 -213q-66 -106 -142 -191q-69 -81 -119 -81q-45 0 -90 45q-41 41 -41 66q0 24 21 24q3 0 10.5 -1t11.5 -1q27 0 95 71 q64 69 135 166q66 89 123 178q56 86 59 111q0 10 -10 10q-80 0 -199 -73q-111 -67 -231 -187q-106 -106 -201 -254q-86 -139 -98 -274q-4 -36 -4 -66q0 -178 125 -178q83 0 167.5 46t198.5 147q16 40 58 125q24 64 32 67q4 10 21 14q9 1 18 1q54 0 82 -48q34 -58 37 -88 q0 -10 -41 -110q-47 -114 -98 -222q-66 -138 -121 -241q-61 -119 -107 -174q-96 -112 -213 -133q-30 -5 -59 -5q-100 0 -182 58q-105 70 -105 94q-3 23 15 23q12 3 12 -9q0 -5 67 -8q54 -3 78 -3q12 0 17 1q16 3 31 9.5t25 12.5t23 16.5t18 15.5l16.5 16.5l13.5 13.5 q141 180 207 281q-56 -35 -111 -35q-42 0 -119 6t-137 57q-94 79 -135 246q-32 145 -32 233q0 14 1 27z" />
<glyph unicode="H" horiz-adv-x="1644" d="M0 -90q0 20 20 20q1 0 4.5 -1.5t6.5 -2.5q14 -20 61 -20q80 0 221 166q143 168 283 385q-223 57 -223 217q0 26 22 26q17 0 17 -10q0 -79 266 -104q131 214 215 383q90 185 90 235q0 21 -12 21q-27 0 -67 -8.5t-95 -34t-100.5 -64.5t-78 -108.5t-32.5 -157.5 q0 -58 31.5 -98.5t60.5 -40.5q12 0 12 -8q0 -13 -24 -29.5t-53 -16.5q-31 0 -146 89q-110 88 -110 157q0 207 161 322q162 116 402 116q36 0 110 -45q78 -44 78 -120q0 -107 -45.5 -267.5t-126.5 -341.5q276 -4 318 -8q83 162 227 414q128 224 244 340q49 49 114 49 q36 0 111 -35q76 -34 76 -78q0 -34 -21 -34q-53 0 -104 -54q-108 -108 -225 -291q-115 -177 -179 -299q41 -11 63.5 -45t22.5 -69q0 -51 -28 -51q-11 0 -11 10q0 14 -8 22q-16 16 -100 19q-73 -152 -90 -244q-12 -83 -12 -166q0 -98 47 -98q3 0 7 2t5 2q6 0 6 -14 q0 -37 -30 -53.5t-68 -16.5q-45 0 -127 49t-82 129q0 178 104 393q-172 -14 -296 -14h-31q-180 -355 -408 -594q-49 -49 -135 -49q-110 0 -219 53q-103 50 -113 60q-6 6 -6 12z" />
<glyph unicode="I" d="M0 -90q0 20 20 20q1 0 4.5 -1.5t6.5 -2.5q14 -20 61 -20q82 0 232 178q154 186 294 408q159 249 256 440q109 213 109 272q0 21 -12 21q-27 0 -67 -8.5t-95 -34t-100.5 -64.5t-78 -108.5t-32.5 -157.5q0 -58 31.5 -98.5t60.5 -40.5q12 0 12 -8q0 -13 -24 -29.5t-53 -16.5 q-31 0 -146 89q-110 88 -110 157q0 207 161 322q162 116 402 116q36 0 110 -45q78 -44 78 -120q0 -155 -89.5 -405t-242 -512t-315.5 -427q-49 -49 -135 -49q-110 0 -219 53q-103 50 -113 60q-6 6 -6 12z" />
<glyph unicode="J" horiz-adv-x="1300" d="M0 -262q3 30 78 51q91 21 168 29q144 12 215 12q41 0 57 -4q139 113 223 235q3 6 31 52l33 45q29 53 72 110q157 249 298.5 554t141.5 382q0 21 -12 21q-28 0 -68 -8.5t-95.5 -34t-101 -64.5t-78 -108.5t-32.5 -157.5q0 -58 32.5 -98.5t61.5 -40.5q10 0 10 -8 q0 -14 -23.5 -30t-52.5 -16q-32 0 -147 89q-111 88 -111 157q0 206 162 322t404 116q34 0 108 -45q80 -44 80 -120q0 -168 -115 -469q-113 -297 -286 -564q-65 -149 -260 -372q97 -22 137 -43q33 -17 51 -52q3 -5 3 -10q0 -20 -32 -49q-40 -37 -37 -27v12q0 32 -14 60 q-14 33 -145 68q-6 -8 -35 -37l-76 -78q-184 -163 -294 -163q-7 0 -13 1q-135 15 -240 117q-98 93 -98 158v8zM53 -272v-7q0 -19 15 -32q17 -15 55 -19h5q39 0 151 43q136 51 176 72q-10 2 -30 2q-57 0 -189 -13q-179 -18 -183 -46z" />
<glyph unicode="K" horiz-adv-x="1513" d="M0 -90q0 20 20 20q1 0 4.5 -1.5t6.5 -2.5q14 -20 61 -20q82 0 232 178q154 186 294 408q159 249 256 440q109 213 109 272q0 21 -12 21q-27 0 -67 -8.5t-95 -34t-100.5 -64.5t-78 -108.5t-32.5 -157.5q0 -58 31.5 -98.5t60.5 -40.5q12 0 12 -8q0 -13 -24 -29.5t-53 -16.5 q-31 0 -146 89q-110 88 -110 157q0 207 161 322q162 116 402 116q36 0 110 -45q78 -44 78 -120q0 -98 -38.5 -243t-106.5 -306q102 71 232.5 216t221.5 283.5t91 194.5q0 29 30 29q42 0 113 -56q70 -52 70 -114q0 -30 -66 -117t-172 -199q-114 -121 -221 -217 q-120 -108 -221 -172q144 -163 219 -334q63 -145 188 -145q25 0 53 6q16 3 19.5 9.5t15.5 6.5q21 0 21 -32q0 -52 -41 -78.5t-103 -26.5q-84 0 -158 30t-124 76t-96 105.5t-75 112.5t-60.5 103.5t-53.5 72.5q-186 -347 -385 -549q-49 -49 -135 -49q-110 0 -219 53 q-103 50 -113 60q-6 6 -6 12z" />
<glyph unicode="L" horiz-adv-x="958" d="M4 76q18 73 80 93q29 9 63 9q39 0 84 -12q97 69 215 217q120 150 226 315q107 165 178 310q74 145 74 196q0 21 -13 21q-27 0 -66.5 -8.5t-95 -34t-101 -64.5t-77.5 -108.5t-32 -157.5q0 -58 31.5 -98.5t60.5 -40.5q10 0 10 -8q0 -14 -23.5 -30t-52.5 -16q-33 0 -145 89 q-111 88 -111 157q0 206 162 322t401 116q35 0 109 -45q80 -44 80 -120q0 -226 -146 -547q-145 -319 -399 -576l279 -118q113 -49 174 -49q14 0 26 3q68 15 74 37q7 24 4 41q-5 15 8 15q19 -1 31 -28q4 -8 6 -17q1 -4 1 -9q0 -47 -81 -123q-91 -84 -141 -96q-27 -6 -55 -6 q-105 0 -230 80q-13 8 -299 188l-86 47q-91 44 -138 44q-8 0 -15 -1q-25 -8 -51 -34q-22 -20 -22 15q0 16 3 32z" />
<glyph unicode="M" horiz-adv-x="1941" d="M0 86q0 41 31 41q6 0 6 -6v-12q-3 -29 47 -29q106 0 293 158q183 154 375 368q185 202 358 422q153 194 242 320q-13 2 -28 2q-78 0 -220 -43q-175 -52 -248 -254q-10 -34 -11 -64q-1 -25 7 -45q16 -46 45 -53q9 -3 6 -10q-5 -14 -31 -21t-57 2q-28 8 -106 131 q-56 91 -56 150q0 19 6 35q67 192 312 245q103 22 202 22q136 0 265 -42l3 -1q3 -1 7 -1l2 -2q45 -20 66 -88q20 -64 20 -109q0 -16 -12 -28q-48 -45 -135 -316q-85 -276 -91 -545v-12q152 239 396 545q202 252 436 551q13 8 39 8q61 0 67 -78q2 -26 2 -49q0 -45 -8 -76 q-3 -13 -18 -28q-41 -33 -129.5 -194t-183.5 -384t-144 -399q-7 -20 -10 -86v-6q0 -41 31 -41q7 0 16 2q21 5 21 1q-2 -5 -60 -34q-53 -27 -111 -27q-38 0 -79 12q-8 0 -15 7q-24 14 -24 57v10q9 153 125 420q68 165 170 360q-161 -185 -324 -401q-170 -226 -176 -309 q-20 -31 -74 -31q-150 0 -190 100q-31 77 -31 170q0 33 4 68q14 133 62 274l69 215l-188 -241q-97 -124 -293 -352q-169 -194 -299 -318q-143 -137 -209 -137q-57 0 -115 76q-55 76 -55 100z" />
<glyph unicode="N" horiz-adv-x="1585" d="M0 127q0 20 20 20q1 0 4.5 -1.5t6.5 -2.5q14 -20 61 -20q82 0 215 145q137 147 262 332q131 190 222 365q94 178 94 239q0 21 -13 21q-27 0 -66.5 -8.5t-95 -34t-101 -64.5t-77.5 -108.5t-32 -157.5q0 -58 31.5 -98.5t60.5 -40.5q12 0 12 -8q0 -13 -24.5 -29.5 t-53.5 -16.5q-30 0 -145 89q-111 88 -111 157q0 206 162 322t402 116q16 0 59 -16q6 0 8 -2q4 0 6 -2h2q4 0 6 -2q5 0 7 -2h2q4 -2 6 -2q106 -43 194 -156q89 -115 95 -194q7 -91 7 -199v-26q0 -91 -4 -158q-4 -77 -9 -194t-7 -179q71 139 221 395q141 236 279 443 q158 233 274 364q135 153 211 162h9q53 0 112 -64q69 -72 72 -94v-8q0 -35 -25 -37q-6 0 -6 6l-2 13q-6 27 -49 24q-117 -15 -293 -203q-184 -200 -342 -421q-168 -232 -301 -451q-121 -199 -164 -291q-41 -41 -63 -41q-44 0 -127 74q-82 76 -88 154v14q0 28 5 87 q7 76 16 208.5t9 271.5q-70 -198 -194.5 -399.5t-286.5 -366.5q-49 -49 -135 -49q-110 0 -219 53q-103 50 -113 60q-6 6 -6 12z" />
<glyph unicode="O" horiz-adv-x="931" d="M0 346q0 111 45 262q44 146 119 297q71 139 162 244q88 102 170 102q107 0 170 -51q65 -53 65 -80q0 -15 -5.5 -17.5t-21.5 1.5t-26 4q-31 0 -107 -98q-71 -87 -155 -240q-83 -152 -137 -307q-60 -168 -60 -301q0 -79 23 -103q10 -10 23 -10q18 0 44 19q94 66 203 239 q113 179 203 400q92 226 92 383q0 148 -96 186q-91 39 -113 39q-12 0 -24 -3t-29 -3q-2 0 -5 -1.5t-5.5 -3t-5 -2.5t-4 0.5t-1.5 6.5q0 30 92 30q34 0 85 -7t73 -13q124 -49 186 -137q63 -90 65 -194v-9q-1 -100 -39 -214q-40 -119 -111 -232t-164 -216 q-65 -72 -134.5 -130.5t-139 -100t-133.5 -62.5q-46 -15 -88 -15q-16 0 -32 2q-56 8 -96.5 42.5t-64 109t-23.5 183.5z" />
<glyph unicode="P" horiz-adv-x="1036" d="M5 51q-5 6 -5 9q0 4 7 3q5 0 11 -2h3q17 0 65 41q63 52 152 183q102 149 182 295q80 149 137 305q35 95 35 156q0 32 -10 55l-15 -6q-203 -96 -284 -189q-87 -96 -113 -233q-1 -6 -4 -24.5t-6.5 -25.5t-9.5 -6q-41 6 -95 99q-42 75 -42 121q0 8 1 16q41 194 330 342 q292 153 617 153q272 0 329 -112q27 -50 27 -104q0 -68 -43 -144q-78 -138 -254 -250q-172 -112 -379 -115q-65 -161 -160 -337q-89 -160 -135 -197q-94 -80 -196 -80q-31 0 -62 7q-59 13 -83 40zM586 1098q29 -11 73 -39q43 -22 52 -31q19 -27 19 -77q0 -75 -42 -203 q7 -1 15 -1q62 0 164 55q115 62 210.5 151.5t108.5 152.5q3 17 3 31q0 55 -46 71q-43 16 -98 16q-22 0 -46 -3q-94 -10 -176 -35l-133 -43z" />
<glyph unicode="Q" horiz-adv-x="964" d="M-6 346q0 111 45 262q44 146 119 297q71 139 159 244q89 102 172 102q107 0 170 -51q66 -54 66 -80q0 -12 -4.5 -16t-11 -2.5t-18.5 4t-21 2.5q-25 0 -81.5 -67.5t-120.5 -169t-126.5 -237t-95.5 -255.5l57 -43l92 -82q14 -15 45 -43q125 172 240 432q119 262 119 447 q0 148 -97 186q-91 39 -112 39q-12 0 -24 -3t-29 -3q-2 0 -5 -1.5t-5 -3t-4.5 -2.5t-3.5 0.5t-1 6.5q0 30 92 30q34 0 85 -7t73 -13q193 -76 233 -229q16 -59 16 -122q0 -98 -38 -206q-56 -168 -193 -344q-135 -173 -276 -279q136 -132 205 -196q104 -97 162 -105 q40 -11 62.5 0t27.5 18.5t9 25.5q1 2 1 3q1 17 14 9q20 -10 20 -44q0 -5 -1 -10q-8 -48 -125 -96q-98 -40 -151 -40q-7 0 -13 1q-99 15 -195 121q-103 119 -176 219q-76 -32 -141 -32q-61 0 -111 28q-104 58 -104 305zM211 162q0 -110 49 -110q25 0 64 30l-54 76l-55 65 q-4 -54 -4 -61z" />
<glyph unicode="R" horiz-adv-x="1089" d="M5 51q-5 6 -5 9q0 4 7 3q5 0 11 -2h3q17 0 65 41q63 52 152 183q102 149 182 295q86 161 139 305q35 95 35 156q0 32 -10 55l-17 -6q-203 -96 -284 -189q-87 -96 -113 -233q-1 -6 -4 -24.5t-6.5 -25.5t-9.5 -6q-41 6 -95 99q-42 75 -42 121q0 8 1 16q41 194 330 342 q292 153 617 153q247 0 317 -98q39 -53 39 -116q0 -49 -23 -105q-52 -122 -200 -240q-143 -113 -326 -151q53 -30 100 -133l41 -111q52 -157 107 -346q53 -179 114 -215q33 -19 56.5 -18.5t31 8t19.5 24.5q11 18 17 4q10 -22 -11 -57q-30 -50 -151 -59q-34 -3 -62 -3 q-70 0 -98 17q-98 58 -125 242l-51 346l-19 94q-27 112 -67 133q-15 9 -52 6q-77 -178 -151 -305q-79 -140 -121 -176q-94 -80 -196 -80q-31 0 -62 7q-59 13 -83 40zM586 1098q29 -11 73 -39q43 -22 52 -31q19 -27 19 -77q0 -75 -42 -203q7 -1 15 -1q62 0 164 55 q115 62 210.5 151.5t108.5 152.5q3 17 3 31q0 55 -46 71q-43 16 -98 16q-22 0 -46 -3q-94 -10 -176 -35l-133 -43z" />
<glyph unicode="S" horiz-adv-x="890" d="M2 266q15 98 86 187q73 87 139 106q20 5 37 6q48 0 74 -45q36 -56 39 -92v-5q0 -52 -55 -61q-61 -6 -58 0q12 30 12 61q0 25 -8 52q-13 44 -31 44q-8 0 -16 -9q-59 -57 -103 -148q-32 -67 -33 -109q0 -36 24 -54q20 -15 56 -15h9q56 4 140.5 50t161.5 111.5t132.5 148 t55.5 151.5q0 23 -27 23q-55 0 -156 -37q-103 -35 -170 -35q-58 0 -121 57t-63 183q0 186 158 335q160 151 301 175q134 0 250 -39q118 -40 118 -150q0 -108 -139 -217q-135 -106 -180 -106q-66 0 -66 45q0 12 19 12q32 0 121 135q90 137 90 197q0 24 -43 24 q-71 0 -183.5 -88.5t-198 -208.5t-85.5 -200q0 -11 12 -11q16 0 110 18.5t156 18.5q98 0 181 -80q83 -77 83 -135q-1 -62 -54.5 -159t-126.5 -182.5t-152.5 -147.5t-126.5 -62q-230 0 -308 78q-63 68 -63 150q0 14 2 28z" />
<glyph unicode="T" horiz-adv-x="937" d="M0 45q0 18 18 18q7 0 9 -2q9 -14 51 -8q67 9 201 170q127 153 264 357q130 196 229 378t102 230q0 6 -10 16q-19 11 -77 11q-13 0 -29 -1q-82 -3 -174 -30q-95 -28 -168 -84q-75 -57 -78 -152q-1 -7 -1 -13q0 -41 23 -67q26 -30 52 -22q8 0 8 -6q0 -38 -68 -47 q-3 -1 -6 -1q-31 0 -115 54q-89 62 -86 117q3 105 121.5 203t281 154t304.5 56q14 0 20 -2l254 -18q188 -10 220 -10q355 0 393 36q8 5 12 10.5t4 9t1.5 5.5t4.5 2q9 0 9 -22q0 -6 -1 -13q-12 -66 -86 -143q-70 -76 -145 -76q-14 0 -177.5 21.5t-307.5 25.5 q-26 -146 -104.5 -354t-205 -435t-258.5 -370q-43 -43 -116 -55q-31 -4 -66 -4q-72 0 -162 18q-134 27 -137 33q-4 4 -4 10z" />
<glyph unicode="U" horiz-adv-x="1267" d="M6 997q-7 38 -7 70q0 60 26 98q196 139 319 189q73 30 173 30q77 0 171 -18q44 -11 154 -68q101 -49 101 -118q0 -6 -1 -11q-10 -63 -88 -217q-65 -127 -174 -323l-170 -301q-76 -134 -76 -150q0 -8 8 -8q21 0 176 125q168 136 306 268q127 244 260 445q147 223 202 280 q46 46 107 55q9 1 18 1q45 0 91 -20q54 -24 90 -54q6 -3 6 -21q0 -32 -19 -32q-53 -13 -98 -60q-83 -86 -176 -219t-176.5 -281t-139 -302t-57.5 -265q0 -88 40 -88h3q1 0 5 3t7 3q6 0 3 -12q0 -58 -91 -72h-3q-42 0 -138 72q-96 71 -96 145q0 75 69 234 q-130 -127 -290 -252q-150 -117 -213 -117q-72 0 -125 74q-42 63 -42 116q0 10 1 19q3 33 69 156l154 270q88 148 172 305q90 165 127 260q2 6 8 26t10 30q3 13 -2 18q-18 12 -70 12q-56 0 -151 -14q-179 -27 -323 -227q-26 -35 -34 -72.5t-1.5 -62.5t20.5 -33q7 -7 4 -13 q-9 -12 -36.5 -13.5t-53.5 15.5q-28 15 -49 125z" />
<glyph unicode="V" horiz-adv-x="1216" d="M0 807q91 242 201 364q108 120 325 154q68 0 176 -31q105 -27 129 -86q22 -55 25 -192q2 -70 2 -144.5t-2 -154.5q-4 -208 -10 -305l-8 -203q71 139 221 395q155 259 280 443q155 228 275 364q135 153 209 162h9q52 0 114 -64q68 -71 71 -94v-8q0 -35 -26 -37q-6 0 -6 6 l-3 13q-6 28 -49 22q-117 -15 -293 -203q-178 -193 -342 -420q-172 -237 -301 -450q-117 -192 -163 -291q-41 -41 -62 -41q-44 0 -127 74q-84 78 -90 153v13q-1 28 5 88q8 76 17 209t9 272q0 247 -68 422q0 12 -10 12q-55 0 -189 -116q-135 -114 -135 -349q0 -58 32.5 -98.5 t62.5 -40.5q10 0 10 -8q0 -13 -24.5 -29t-53.5 -16q-34 0 -123 74q-88 73 -88 141z" />
<glyph unicode="W" horiz-adv-x="1837" d="M0 809q92 244 201 365q107 118 325 153q68 0 176 -31q105 -27 129 -86q22 -55 25 -192q2 -70 2 -144.5t-2 -154.5q-4 -208 -10 -305l-8 -203q67 126 192 344l17 27l100 166q4 10 16 26l94 154q43 68 99 145q2 4 9 4q15 0 52 -16q56 -20 56 -113v-10q3 -43 5 -84t3 -87.5 t2 -78.5v-37v-47q-1 -53 -1 -75t-1.5 -83t-2 -74.5t-3 -83t-2.5 -77.5q71 139 221 395q143 245 278 443q155 228 275 364q135 153 211 162h9q52 0 111 -64q69 -72 72 -94v-8q0 -34 -24 -37q-9 0 -9 6v13q-6 27 -51 24q-117 -15 -293 -203q-184 -200 -342 -421 q-168 -232 -301 -451q-121 -199 -164 -291q-41 -41 -61 -41q-44 0 -127 74q-82 76 -88 154q-1 6 -1 16q-1 22 3 58q4 52 13 146.5t12 186.5q0 5 -7 19q-143 -210 -243 -377q-110 -180 -133 -236q-41 -41 -62 -41q-44 0 -127 74q-84 78 -90 154v13q-1 28 5 88q8 76 17 208.5 t9 271.5q0 247 -68 422q0 12 -10 12q-55 0 -189 -116q-135 -114 -135 -349q0 -58 32.5 -98.5t62.5 -40.5q10 0 10 -8q0 -13 -24.5 -29t-53.5 -16q-34 0 -123 74q-88 73 -88 141z" />
<glyph unicode="X" horiz-adv-x="1492" d="M0 -6q0 11 20 14q1 0 8.5 -3.5t18 -5t35.5 0.5q92 12 258 168q160 147 365 371q-161 290 -220 403q-100 190 -100 205q0 93 129 151q135 60 156 60q39 0 39 -45q0 -64 59 -215q57 -139 154 -322q188 302 368 539q187 248 291 260h9q52 0 114 -64q67 -70 70 -94v-8 q0 -35 -25 -37q-6 0 -6 6l-2 13q-6 27 -49 24q-136 -19 -334 -248q-206 -239 -381 -493q122 -226 252 -412q132 -182 192 -182q13 0 31 3t23 0.5t6 -13.5q3 -20 -21 -34t-63.5 -20t-89.5 -6q-97 0 -205 21q-105 21 -141 57q-14 10 -187 324q-146 -207 -285 -387 q-128 -161 -190 -170q-9 -1 -18 -1q-65 0 -164 56q-114 64 -117 84z" />
<glyph unicode="Y" horiz-adv-x="1261" d="M2 997q-2 19 -2 36q0 86 37 132q211 138 338 189q76 29 177 29q77 0 169 -17q46 -12 149 -68q87 -44 87 -106q0 -11 -3 -23q-16 -62 -96 -196q-83 -141 -172 -281q-78 -126 -166 -258q-74 -111 -78 -129q0 -8 9 -8q21 0 194 129q154 114 340 274q56 96 167.5 292.5 t154.5 267.5q32 60 41 69q11 11 24 14q11 1 22 1q56 0 103 -39q60 -51 57 -80q-4 -16 -122 -240q-95 -181 -277 -506q-140 -253 -301 -522q-141 -244 -197 -303q-109 -112 -231 -133q-35 -5 -68 -5q-103 0 -198 48q-128 65 -125 86q0 21 18 24q21 -4 60 -12q41 -8 76 -8 q18 0 34 2q65 10 139 84q104 116 232 315q139 217 283 459q-161 -145 -326 -260q-171 -121 -234 -121q-70 0 -114 74q-31 55 -31 102q0 17 4 33q9 38 110 193t229 355t185 316l25 56q3 15 0 18q-18 12 -70 12q-56 0 -151 -14q-181 -27 -348 -227q-29 -34 -41 -72t-7.5 -62.5 t17.5 -33.5q4 -9 2 -13q-12 -12 -38.5 -13.5t-51.5 15.5q-26 16 -35 125z" />
<glyph unicode="Z" horiz-adv-x="1234" d="M0 428q0 121 76 301t203 354q130 174 294 295q169 123 349 123q255 0 362 -149q111 -150 111 -185q0 -121 -125 -331q-133 -223 -299 -392q35 -25 63 -67q112 83 152 98q33 14 64 14q10 0 20 -2q24 -6 24 -61q2 -51 -4 -47q-25 28 -65 37q-4 1 -8 1q-43 0 -160 -83 q28 -61 28 -101q0 -94 -41.5 -197t-118 -196t-174 -168t-220 -119.5t-246.5 -44.5q-51 0 -62 33q-12 30 -12 41q0 64 230.5 291.5t498.5 433.5q2 8 2 33q0 33 -29 49q-107 -101 -157 -104h-10q-44 0 -80 24q-66 47 -113 94q-30 30 -35.5 46.5t14.5 23.5q241 65 445 315 q205 254 205 506q0 39 -66 39q-90 0 -231 -108q-145 -111 -277 -271q-138 -163 -231 -344q-96 -184 -96 -331q0 -39 31 -59.5t67 -20.5q29 0 45 28q16 29 35 29q26 0 26 -29q0 -12 -47 -59q-45 -45 -108 -45t-197 119q-133 121 -133 186zM297 -397q0 -13 12 -13 q37 0 122.5 62.5t179.5 154t181.5 208t125.5 210.5q-244 -193 -429 -383q-192 -198 -192 -239z" />
<glyph unicode="[" horiz-adv-x="571" d="M0 -12q0 41 70 233q68 187 159 418q66 162 179 414q89 192 124 227q27 27 39 43q8 14 68 14q116 0 225 -41q111 -40 111 -77q0 -18 -15 -29.5t-28 -11.5q-8 0 -8 4q0 51 -58 51q-35 0 -77 -17.5t-62 -37.5q-55 -56 -141 -240q-82 -178 -168 -391q-91 -227 -142 -377 q-57 -168 -57 -203q0 -43 51 -55q49 -14 99 -14q15 0 32 1t19 1q18 0 18 -21q0 -36 -43 -45q-36 -8 -63 -8q-113 0 -223 49q-109 50 -109 113z" />
<glyph unicode="\" horiz-adv-x="868" d="M0 1296q0 142 158 142q2 0 108 -183q107 -180 232 -409q116 -210 227 -440q102 -212 102 -275q0 -87 -73 -139q-71 -53 -105 -53q-28 0 -28 16q0 14 18 14q20 0 20 27q0 64 -102 260q-111 213 -227 414l-228 399q-102 185 -102 227z" />
<glyph unicode="]" horiz-adv-x="720" d="M-115 0q0 17 14.5 29t28.5 12q6 0 6 -4q0 -49 60 -49q89 0 139 53q53 54 139 238q94 203 166 389q87 216 142 379q59 177 59 206q0 44 -53 56q-49 14 -97 14q-15 0 -32 -1t-19 -1q-18 0 -18 20q0 36 41 45q43 9 67 9q112 0 222 -49t110 -115q0 -40 -72 -238 q-67 -183 -161 -415q-79 -201 -178 -414q-85 -187 -121 -223q-35 -35 -41 -43q-9 -15 -68 -15q-116 0 -225 41t-109 76z" />
<glyph unicode="^" horiz-adv-x="479" d="M68 621q0 6 2 8q0 5 52.5 53t110.5 91.5t68 35.5q34 -34 94 -125q62 -89 62 -106q0 -18 -37 -27q-37 -6 -49 -6q-11 0 -45 69q-35 72 -47 72l-70 -70q-69 -69 -92 -69q-14 0 -31.5 25.5t-17.5 48.5z" />
<glyph unicode="_" d="M0 37q0 10 16 72q14 54 52 92q28 28 153 37q140 10 271 10q139 0 253 -6q34 -1 65 -2t46 -1.5t18 -0.5q15 0 35 8t25 8q10 0 10 -29q0 -35 -22 -90q-22 -56 -41 -72q-16 -16 -103 -16q-74 0 -221 10q-161 11 -252 11q-214 0 -266 -52q-6 -6 -12 -6q-27 0 -27 27z" />
<glyph unicode="`" horiz-adv-x="272" d="M0 961q0 17 27 57q27 43 57 43q31 0 31 -23q0 -4 -3 -8.5t-3 -7.5q0 -34 61 -98q64 -64 84 -64q6 0 6 -6q0 -20 -22 -20q-50 0 -142 32q-96 35 -96 95z" />
<glyph unicode="a" horiz-adv-x="765" d="M0 274q0 141 113 318q113 180 211 180q68 0 122 -57q58 -58 58 -99q0 -18 -47 -18q-58 0 -112.5 -49.5t-89 -116.5t-55 -127.5t-20.5 -89.5q0 -12 8 -12q2 0 64 83t147.5 189.5t135.5 151.5q35 26 47 26q51 0 77 -45q31 -48 31 -63q0 -34 -37 -127t-37 -154q0 -55 23 -55 q30 0 100 119l70 121q9 0 19 -14q8 -10 7 -17q0 -2 -1 -4l-27 -49q-27 -49 -56 -98t-66.5 -91.5t-61.5 -42.5q-84 0 -136.5 45t-52.5 133q0 39 17 105l16 59q-19 0 -107 -129q-90 -128 -139 -174q-36 -39 -55 -39q-23 0 -96 25q-70 24 -70 116z" />
<glyph unicode="b" horiz-adv-x="778" d="M0 309q0 52 68 197q65 141 151 301q85 156 162 276q77 121 96 121q63 0 92 -69q21 -50 21 -80q0 -14 -4 -23l-70 -112l-129 -215l-125 -228q-55 -107 -55 -137v-6q2 0 43 72q55 93 100 161q58 89 123 162q65 74 111 74q63 0 110 -68q49 -67 49 -110q0 -47 -53 -168 q53 -4 99.5 -17.5t68 -26.5t21.5 -18q0 -22 -25 -22q-3 0 -20 10.5t-58.5 22.5t-101.5 16q-49 -104 -127 -215q-73 -105 -166 -105q-99 0 -135 25q-32 25 -45 51q-9 -45 -45 -45q-31 0 -93 45q-63 45 -63 131zM233 225q0 -45 35 -45q40 0 86 57.5t88 147.5q-93 -31 -151 -73 t-58 -87zM272 350q78 62 193 88q67 155 67 234q0 18 -6 18q-27 0 -110 -115q-82 -114 -144 -225z" />
<glyph unicode="c" horiz-adv-x="565" d="M0 338q0 97 57.5 224t133 215.5t126.5 88.5t127 -43q76 -40 101 -82q6 -8 6 -21q0 -32 -35 -97q-49 -88 -49 -142q-3 -46 -31 -18t-28 43q0 10 18 69q17 59 39 101q-96 -39 -174 -174q-74 -133 -74 -226q0 -92 76 -92q140 0 223 127l105 166q4 4 12 4q14 0 14 -22 q-2 -7 -4 -21q-129 -259 -301 -301q-31 -8 -63 -8q-55 0 -166 51q-113 52 -113 158z" />
<glyph unicode="d" horiz-adv-x="819" d="M0 309q6 89 77.5 224t164.5 236q89 97 148 97h5q67 -6 119 -67q51 -57 51 -95q-1 -12 -7 -18q-6 -4 -11.5 -4t-16 1t-14.5 1h-6q-54 0 -114 -55q-64 -58 -109.5 -137.5t-77 -152t-33.5 -103.5q0 -13 6 -13q1 -1 10 8t26.5 29t40.5 46.5t56 66.5q130 151 222 231 q91 204 190 387q103 189 127 189q35 -4 68.5 -40t46.5 -75q2 -10 2 -20q0 -28 -15 -62q-28 -54 -131.5 -249t-154.5 -294q-59 -121 -101 -239q-12 -37 -13 -58q0 -11 4 -18q10 -19 48 -2q104 47 252 293q3 6 8 6q17 0 17 -35q0 -3 -1 -6t-1 -4q-2 -2 -30 -45t-56.5 -81.5 t-66.5 -83.5t-76 -71q-34 -23 -60 -22h-6q-63 3 -131 45q-59 36 -59 105q0 14 3 30q3 44 78 221q-18 -3 -117 -123q-91 -116 -147 -162q-40 -34 -56 -34h-3q-28 0 -95 30q-61 29 -61 115v8z" />
<glyph unicode="e" horiz-adv-x="563" d="M0 338q0 97 57.5 224t133 215.5t126.5 88.5t127 -43q76 -40 101 -82q5 -7 5 -21q0 -40 -40 -136q-55 -131 -55 -181v-12q-3 -19 -17 -12q-4 0 -19.5 8.5t-48 20.5t-75.5 18q-8 2 -41 2q-37 -87 -37 -152q0 -92 76 -92q140 0 223 127l105 166q4 4 12 4q14 0 14 -22 q-2 -7 -4 -21q-129 -259 -301 -301q-31 -8 -63 -8q-55 0 -166 51q-113 52 -113 158zM270 465q4 -2 19 -2q54 -5 110 -23q8 42 27 115q21 87 39 121q-54 -24 -105.5 -81.5t-89.5 -129.5z" />
<glyph unicode="f" horiz-adv-x="507" d="M-166 -135q0 48 78 264q70 194 180 446q107 241 211 422q109 189 166 189q49 0 102 -80q48 -72 48 -109q0 -4 -1 -8l-24 -149q-21 -129 -37 -129h-39q-26 0 -14 37q5 21 16 92l21 106q-64 -93 -162 -256q14 2 57 2q76 0 76 -64q0 -39 -24 -71q-18 -23 -24 -3q-1 5 -1 13 q0 45 -70 45q-45 0 -59 -2q-110 -199 -215 -450q-96 -241 -96 -387q0 -29 -33 -29q-48 0 -101 47q-55 46 -55 74z" />
<glyph unicode="g" horiz-adv-x="694" d="M-227 -186q0 95 143 186q147 90 338 117q107 192 201 413l12 39q-18 0 -107 -127q-87 -124 -139 -176q-39 -39 -57 -39q-23 0 -96 25q-68 27 -68 119q0 138 113 315q113 180 209 180q67 0 124 -57q58 -58 58 -96q0 -8 -3 -12.5t-9.5 -6t-11.5 -1.5t-13.5 0.5t-11.5 0.5 q-46 0 -91 -33t-77 -82t-57 -103.5t-37.5 -99t-12.5 -67.5q0 -12 8 -12l41 51l21 27l41 53l59 80q6 7 30.5 38.5t38.5 49t36.5 44t41.5 47t35 34.5q26 73 31 78q21 69 55 69q17 0 38 -18q42 -36 70 -108q9 -24 9 -37q0 -34 -69 -218q-71 -186 -193 -372q127 -27 172 -78 q47 -50 47 -78q0 -37 -41 -72q-39 -33 -39 -18q0 17 -30 84q-26 66 -148 104q-75 -107 -186 -235q-88 -101 -217 -101q-77 0 -166 21q-92 21 -92 72zM-170 -166q0 -57 92 -57q121 0 297 284q-169 -26 -280 -102q-109 -77 -109 -125zM188 297l9 8l26 35zM223 340l8 10l-2 -2 l-4 -4z" />
<glyph unicode="h" horiz-adv-x="712" d="M0 309q0 52 68 197q65 141 151 301q85 156 162 276q77 121 96 121q63 0 92 -69q21 -50 21 -80q0 -14 -4 -23l-70 -112l-129 -215l-125 -228q-55 -107 -55 -137v-6q6 0 61 82l123 182q49 73 127 184q63 84 78 84q51 0 104 -39q56 -38 56 -69q0 -17 -54 -119t-108.5 -228 t-54.5 -200q0 -21 14 -21q56 0 207 281q6 6 10 6q16 0 16 -31q0 -8 -4 -16q-26 -50 -104 -178q-73 -119 -148 -119q-63 0 -112 56t-49 133q0 83 82 266q-87 -124 -164 -248q-86 -138 -99 -188q-6 -19 -32 -19q-31 0 -93 45q-63 45 -63 131z" />
<glyph unicode="i" horiz-adv-x="329" d="M0 322q0 27 31 118q42 124 69 187q37 90 78 174q41 78 53 78q52 0 105 -39q55 -37 55 -70q0 -15 -34.5 -84t-76 -148.5t-76 -173.5t-34.5 -153q0 -21 14 -21q56 0 207 281q6 6 10 6q19 0 19 -31q0 -7 -6 -16q-21 -40 -105 -178q-73 -119 -147 -119q-63 0 -112.5 56 t-49.5 133zM274 1006q0 37 17 73.5t45 36.5q86 0 127 -47t41 -63q0 -6 -23 -64q-20 -51 -53 -51q-66 0 -110 35t-44 80z" />
<glyph unicode="j" horiz-adv-x="344" d="M-612 -186q0 94 145 186q147 90 338 117q46 83 96.5 188.5t90 199.5t72 174t52.5 131l19 50q6 18 27 18q25 0 71 -26q82 -46 82 -82q0 -31 -86 -250q-80 -212 -207 -405q129 -28 174 -78q47 -50 47 -78q0 -34 -33 -63q-36 -31 -43 -31q-4 0 -4 4q0 17 -30 84 q-29 66 -148 104q-91 -124 -184 -235q-88 -101 -217 -101q-82 0 -170 21q-92 21 -92 72zM-553 -166q0 -57 92 -57q123 0 299 284q-169 -26 -280 -102q-111 -77 -111 -125zM266 1006q0 37 17 73.5t45 36.5q86 0 127 -47t41 -63q0 -11 -21 -64q-20 -51 -53 -51 q-69 0 -112.5 35t-43.5 80z" />
<glyph unicode="k" horiz-adv-x="694" d="M0 309q0 52 68 197q65 141 151 301q85 156 162 276q77 121 96 121q63 0 92 -69q21 -50 21 -80q0 -14 -4 -23l-60 -96q-16 -24 -33.5 -54.5t-41.5 -71t-39 -65.5q-82 -137 -123 -213q-58 -105 -76 -159l17 33q18 34 32 57l37 69q57 104 139 222q76 110 135 110 q39 0 111 -35q70 -34 70 -71q0 -73 -99 -187q-98 -110 -178 -125q26 -61 35 -147q9 -84 49 -84q25 0 63 57.5t130 225.5q3 8 10 8q14 0 14 -27q0 -10 -10 -37l-84 -153q-65 -118 -133 -148q-22 -10 -59 -10q-15 0 -33 2q-60 9 -84 33q-30 27 -33 121q-3 91 -33 153 q-51 -81 -80 -168q-38 -108 -41 -120q-6 -19 -32 -19q-31 0 -93 45q-63 45 -63 131zM348 528q88 3 170 88t82 159v5q0 31 -19 31h-3q-37 -3 -101 -88q-61 -78 -129 -195z" />
<glyph unicode="l" horiz-adv-x="415" d="M0 309q0 83 55 226q59 154 131 286q72 135 154 248q76 107 121 107q61 0 108 -46t47 -108q0 -53 -72 -185t-168 -260.5t-159 -170.5q-3 -6 -11 -26t-11 -28t-9 -25.5t-9 -28t-6.5 -25.5t-5 -28t-1.5 -26q0 -39 31 -39q21 0 67 27q112 63 227 274q3 6 7 6q18 0 18 -32 q0 -9 -2 -11q-14 -32 -117 -176q-105 -147 -243 -147q-61 0 -106.5 54t-45.5 134zM248 477q93 98 213.5 290.5t120.5 242.5q0 10 -11 10q-13 0 -127 -178q-106 -167 -196 -365z" />
<glyph unicode="m" horiz-adv-x="1130" d="M-37 309q69 141 166 312q90 152 141 215q21 30 31 30q63 0 92 -69q21 -50 21 -79q0 -13 -4 -22l-68 -114q-53 -86 -133 -226v-8v-4q2 0 43 66q52 83 98 143q67 91 121 145q65 68 113 68q18 0 24 -2q120 -29 120 -91q0 -18 -11 -40q-47 -92 -74 -172q57 84 164 198 q101 107 164 107t104 -59t41 -103q0 -7 -84 -160q-83 -150 -112 -247q-4 -16 -5 -29q-1 -22 13 -34q20 -20 57 -1q39 21 83 93t118 218q4 7 8 7q18 0 18 -33q0 -10 -2 -12l-88 -177q-74 -147 -153 -147q-135 0 -181 37q-53 38 -53 105q0 13 2 26q14 85 56 176q47 96 88 158 q45 68 45 84q0 4 -4 4q-48 0 -187.5 -166t-177.5 -262q-12 -30 -12 -45q0 -56 -49 -56q-45 0 -101 39q-11 20 -11 51q0 7 1 15q9 113 72 227q61 111 78 170q1 6 2 11.5t1.5 8t0.5 3.5q0 4 -7 4q-50 0 -192 -209q-55 -81 -95 -159.5t-40 -104.5q0 -56 -47 -56q-30 0 -109 43 q-80 44 -86 123z" />
<glyph unicode="n" horiz-adv-x="813" d="M-47 309q69 141 166 312q95 161 139 215q24 30 33 30q63 0 92 -69q20 -46 20 -75q0 -16 -6 -26q-5 -12 -65 -114q-53 -86 -133 -226q-2 -2 -2 -8q0 -4 2 -4q1 0 6 6.5t19 24.5t28 35q66 82 123 143q71 80 145 145q77 68 125 68q62 0 103 -59q43 -58 43 -103q0 -4 -48 -94 t-97 -198t-52 -154q-3 -29 9 -37t40 4q60 28 82 59q46 64 145 260q4 7 9 7q18 0 18 -33q0 -10 -2 -12q-7 -16 -31 -68t-36.5 -77.5t-36 -62t-46.5 -59.5q-56 -56 -130 -56q-26 0 -54 7q-63 14 -103 54q-35 35 -35 88q0 8 1 16q9 125 92 258q84 134 84 162q0 4 -4 4 q-29 0 -96 -64q-76 -76 -135 -145q-57 -70 -119 -160q-51 -74 -51 -104q0 -56 -50 -56q-27 0 -106 43q-80 44 -86 123z" />
<glyph unicode="o" horiz-adv-x="587" d="M0 336q0 137 92 285q91 149 236 149q72 0 139 -33q74 -30 74 -123q0 -78 -29 -151q-28 -67 -106 -176q20 -8 40 -8q50 0 97 55q64 76 92 127q0 4 6 4q23 0 23 -27q0 -6 -2 -8q-39 -76 -115 -149q-48 -44 -108 -44q-30 0 -64 11q-106 -127 -189 -127q-44 0 -114 49 q-72 51 -72 166zM166 252q0 -68 45 -68q53 0 121 80q-60 42 -60 150q0 68 29 151q-64 -74 -99.5 -160t-35.5 -153zM350 397q0 -57 19 -82q79 94 100 203q6 28 6 49q0 58 -43 58l-4 -2q-56 -21 -68 -97q-10 -85 -10 -129z" />
<glyph unicode="p" horiz-adv-x="712" d="M-166 -8q0 51 68 196q65 141 151 301q95 169 162 275q77 121 94 121q62 0 92 -70q21 -50 21 -80q0 -13 -4 -22q-3 -4 -14.5 -23.5t-32.5 -55t-41 -67.5l78 71.5t69.5 64.5t34.5 32q39 33 56 33h3q27 -3 91 -33q61 -28 61 -106v-15q-9 -111 -94 -245q-82 -134 -174 -195 q11 -1 22 -1q66 0 133 37q78 42 135 144q0 4 7 4q22 0 22 -26q0 -6 -2 -8q-74 -145 -205 -179q-65 -15 -120 -15t-99 15q-66 12 -112 70q-41 51 -41 91v5q0 7 3 11t8.5 5t11 1t14.5 -1t14 -1h13q110 0 194 147q90 162 96 215q0 11 -6 14q-7 0 -101 -88l-184 -168 q-84 -139 -141 -247q-62 -114 -84 -174q-16 -43 -16 -106q0 -39 6 -85q0 -18 -35 -18q-28 0 -90 47q-64 46 -64 129z" />
<glyph unicode="q" horiz-adv-x="688" d="M0 274q0 141 113 318q113 180 211 180q68 0 122 -57q58 -58 58 -99q0 -18 -47 -18q-58 0 -112.5 -49.5t-89 -116.5t-55 -127.5t-20.5 -89.5q0 -12 8 -12q2 0 64 83t147.5 189.5t135.5 151.5q35 26 47 26h4h4q47 -6 74 -49q26 -39 26 -59v-2q4 -21 4 -36t-4 -24 q-5 -13 -117 -194q-98 -161 -184 -320q-60 -108 -84 -172q-16 -45 -16 -109q0 -38 6 -83q0 -10 -12.5 -15.5t-22.5 -5.5q-27 0 -92 47q-64 46 -64 129q0 71 107 281q104 204 213 389l-105 -139q-68 -92 -98 -119q-36 -39 -55 -39q-23 0 -96 25q-70 24 -70 116z" />
<glyph unicode="r" horiz-adv-x="464" d="M-12 348q0 10 6 19q5 9 25.5 46t48.5 88.5t53 102.5q-22 7 -38.5 15t-34 20.5t-27 31.5t-9.5 42q0 63 39 114q40 52 58 52q37 0 81 -35q43 -34 43 -64q0 -25 -45 -116q98 -69 125 -89q66 -58 66 -98v-6q-2 -25 -21 -104q-6 -18 -22 -86q-6 -31 -6 -49q0 -29 14 -29 q25 0 74 61q51 62 76 105q19 -3 26 -27v-6q-26 -53 -88 -127q-64 -76 -106 -76q-55 0 -115 60q-55 61 -55 94q0 49 17 124t17 99q0 13 -12.5 44t-23.5 36l-86 -166l-50 -94q-3 -6 -8 -6q-22 0 -22 24z" />
<glyph unicode="s" horiz-adv-x="507" d="M0 358q9 113 55 113q13 0 25 -6l59 117q-10 38 -10 61q0 72 49 148q49 75 111 75q63 0 121 -55q59 -56 59 -61q0 -29 -23 -29q-98 0 -110 -62q-4 -20 -4 -44q0 -42 14 -93q16 -60 53 -153q27 -60 27 -92q0 -8 -2 -15q48 57 88 127l57 103l6 12q3 6 7 6q16 0 16 -29 q0 -6 -4 -14l-62 -117q-54 -103 -108 -168q-53 -68 -164 -71h-11q-102 0 -165 55q-84 76 -84 178v14zM98 287q-1 -10 -1 -19q0 -53 44 -53h4q86 0 86 125q0 28 -11 60t-32.5 75.5t-29.5 61.5l-49 -93q45 -42 45 -71q0 -11 -13 -11q-34 0 -43 -75z" />
<glyph unicode="t" horiz-adv-x="376" d="M0 248q9 110 96 323q103 252 133 312q-24 0 -35 -1t-16 -1h-22q-82 0 -82 57q0 25 14 25q3 0 7.5 -7.5t18 -14.5t38.5 -7q7 0 14 0.5t29.5 3t52.5 4.5q2 3 27.5 51t50.5 94q65 117 71 117q52 0 97 -63q31 -41 31 -77q0 -17 -7 -34l-29 -59q47 0 93 -15q24 -6 24 -26 t-24 -53q-16 -25 -43 -7q-30 20 -86 23q-32 -74 -97 -213q-67 -144 -100 -225q-51 -126 -82 -246q-9 -35 -8 -55q0 -14 4 -22q10 -18 47 1q44 24 108 108.5t124 202.5q0 7 6 7q18 0 18 -33q0 -10 -2 -12q-8 -20 -35.5 -68t-66.5 -108t-86 -104t-82 -44q-60 0 -133 37 q-68 35 -68 116v13z" />
<glyph unicode="u" horiz-adv-x="679" d="M-18 315q56 174 114 308q70 163 82 211q8 32 25 32q49 0 100 -39t51 -71q0 -73 -96 -248q-94 -169 -94 -238q0 -6 4 -6q21 0 82 88q64 88 131 195q53 81 125 196q60 91 67 91q72 0 121 -52q44 -44 44 -64q0 -3 -1 -5q-9 -39 -55 -117q-34 -58 -86 -164q-40 -81 -55 -153 q-4 -17 -4 -30q0 -41 36 -48q8 -2 15 -2q33 0 61 32q46 49 150 242q3 6 8 6q16 0 16 -33q0 -2 -4 -14q-23 -47 -94 -164q-77 -133 -150 -133q-60 0 -133 43q-71 47 -71 119q0 91 67 225q22 44 37 75t21.5 45.5t5.5 14.5q-7 0 -53 -79q-73 -124 -107 -177q-72 -111 -125 -176 q-63 -78 -100 -78t-97 48q-42 36 -42 86q0 16 4 34z" />
<glyph unicode="v" horiz-adv-x="456" d="M2 254q24 103 61 278q39 190 50 261q0 6 -13 47q-9 37 27 37q67 0 121 -48q55 -46 55 -79q0 -26 -7 -69t-18 -91.5t-23.5 -101t-25.5 -100t-23.5 -85.5t-17.5 -61l-6 -23q99 110 221 309q127 208 154 359q3 29 -8 37q-10 10 8 10q17 0 43.5 -12.5t26.5 -18.5 q-3 -48 -70 -180q-65 -123 -147 -252q-88 -134 -158 -225q-78 -96 -100 -96q-58 0 -107 32q-44 29 -44 62q0 5 1 10z" />
<glyph unicode="w" horiz-adv-x="806" d="M2 254q24 103 61 278q39 190 50 261q0 6 -13 47q-9 37 27 37q67 0 121 -48q55 -46 55 -79q0 -26 -7 -69t-18 -91.5t-23.5 -101t-25.5 -100t-23.5 -85.5t-17.5 -61l-6 -23q27 31 78 90q90 108 156 211q26 127 51 273q0 9 -12 47q-9 37 26 37q66 0 123 -48q55 -46 55 -79 q0 -56 -31 -188.5t-61 -237.5l-30 -105q99 110 221 309q126 205 153 359q3 29 -8 37q-10 10 8 10q17 0 43.5 -12.5t26.5 -18.5q-3 -48 -70 -180q-65 -123 -147 -252q-88 -134 -158 -225q-78 -96 -100 -96q-58 0 -109 32q-43 28 -43 59q0 7 2 13q2 8 41 176 q-76 -106 -151 -197q-71 -83 -94 -83q-58 0 -107 32q-44 29 -44 62q0 5 1 10z" />
<glyph unicode="x" horiz-adv-x="800" d="M0 201q0 49 117 151q145 127 235 195q-84 231 -90 250q-9 31 -34 31q-24 0 -64 -29q-12 -12 -14 12v12q0 16 90 60q89 45 153 45q29 0 58 -65t67 -187q77 71 118.5 122.5t41.5 90.5q0 31 13 45q9 10 19 10q6 0 12 -2q18 -8 30 -33q7 -15 10 -31t2 -25v-9q0 -28 -55.5 -82 t-171.5 -152q40 -142 73 -233q41 -109 84 -109q33 0 111 125l45 78q26 0 26 -22q0 -6 -2 -13q-1 -4 -14.5 -30t-37.5 -66t-46 -74q-31 -50 -94 -116q-42 -42 -89 -42q-19 0 -40 7q-74 21 -111 143q-33 116 -65 215q-109 -98 -187 -180q-94 -98 -94 -148q0 -62 -18 -62 q-12 0 -31 28q-47 71 -47 90z" />
<glyph unicode="y" horiz-adv-x="700" d="M-244 -186q0 94 144 186q147 90 338 117q87 153 241 512q-13 -20 -55 -90t-79 -128.5t-82 -123.5t-84 -102.5t-64 -37.5q-37 0 -97 48q-42 35 -42 83q0 18 6 37q49 161 112 308q75 174 84 211q3 32 23 32q49 0 100 -39q53 -41 53 -71q0 -43 -48 -146t-96 -203.5 t-48 -136.5q1 -6 4 -6q21 0 82 88q64 88 131 195q53 81 125 196q60 91 67 91q66 0 117 -48q49 -46 49 -69q0 -2 -2 -4q0 -8 -6 -17q-31 -98 -104 -266q-67 -161 -168 -315q129 -28 174 -78q47 -50 47 -78q0 -34 -33 -63q-36 -31 -43 -31q-6 0 -6 4q0 14 -31 84 q-26 66 -145 104q-81 -111 -189 -235q-88 -101 -215 -101q-79 0 -168 21q-92 21 -92 72zM-184 -166q0 -57 92 -57q117 0 297 284q-170 -27 -281 -102q-108 -77 -108 -125z" />
<glyph unicode="z" horiz-adv-x="581" d="M-154 -195q0 93 144 187q145 94 336 121q2 3 2 8q0 19 -31 57q-34 49 -129 55q-4 0 -14.5 0.5t-13.5 0.5t-10.5 1t-9.5 3.5t-7 6t-6 9t-3.5 13t-3 18t-0.5 24.5q0 5 4 17q22 42 146 53l14 16q61 101 107 250q17 53 17 88q0 64 -56 66q-49 0 -133 -140 q-108 -180 -164 -280q-3 -8 -15 -8q-20 0 -20 18q0 1 0.5 2t1.5 3.5t2 4.5q63 129 166 299q98 162 174 162q57 0 143 -57q91 -60 91 -144q0 -70 -39 -158t-99 -167q67 -55 82 -129q9 -46 10 -69q0 -14 -4 -19q126 -24 183 -78q55 -52 55 -80q0 -34 -33 -63q-29 -33 -41 -33 q-6 0 -6 4q0 14 -31 84q-30 65 -147 102q-26 -106 -152 -223q-121 -112 -250 -115q-74 0 -167 19q-90 18 -93 71zM-94 -174q0 -57 92 -57q68 3 180 100q115 95 133 190q-171 -30 -288 -106q-117 -77 -117 -127z" />
<glyph unicode="{" horiz-adv-x="432" d="M0 168q0 127 80 254q82 125 82 244q0 43 -51 49q-50 9 -50 24q0 22 45 19t76 28q48 48 88 154q44 108 99 219q58 117 131 195q78 84 190 84q32 0 59 -6t43 -15t27.5 -20t16 -19.5t4.5 -13.5q0 -14 -6 -14q-1 0 -21.5 15t-38.5 15q-42 0 -102 -84q-52 -77 -113 -190 q-33 -59 -108 -205q-53 -100 -82 -129q-24 -25 -48.5 -40.5t-36.5 -17.5l-12 -3q6 -6 14 -18t22 -54t14 -90t-27.5 -132.5t-61 -160t-61 -145.5t-27.5 -91q0 -56 33.5 -93.5t63.5 -37.5q9 0 18 9q6 6 10 6q15 0 15 -19q0 -22 -31 -22q-46 0 -152 71q-102 70 -102 234z" />
<glyph unicode="}" horiz-adv-x="880" d="M-164 -61q0 12 4 12q1 0 21.5 -14.5t40.5 -14.5q43 0 98 82q58 81 113 186l108 205q52 101 84 133q24 23 48 38.5t36 19.5l12 4q-5 6 -13 17t-21 53t-13 92q0 59 44 177t88 221.5t44 127.5q0 66 -38 98q-38 35 -58 35q-15 0 -18 -8l-10 -6q-15 0 -15 18q0 23 31 23 q43 0 149 -74q105 -70 105 -231q0 -134 -82 -259t-82 -239q0 -44 49 -53q51 -9 51 -21q0 -25 -45 -22q-43 3 -73 -27q-49 -49 -93 -158q-37 -100 -96 -217q-56 -109 -131 -190q-78 -84 -188 -84q-40 0 -71.5 9t-47 22.5t-23.5 25t-8 19.5z" />
<glyph unicode="&#xad;" d="M0 436q0 10 16 72q14 54 52 92q28 28 153 37q140 10 271 10q101 0 253 -4q34 -1 65 -2t46 -1.5t18 -0.5q15 0 35 7t25 7q10 0 10 -28q0 -35 -22 -90q-22 -56 -41 -72q-17 -17 -103 -17q-60 0 -221 11q-147 10 -252 10q-215 0 -266 -51q-6 -6 -12 -6q-27 0 -27 26z" />
<glyph unicode="&#x2000;" horiz-adv-x="787" />
<glyph unicode="&#x2001;" horiz-adv-x="1575" />
<glyph unicode="&#x2002;" horiz-adv-x="787" />
<glyph unicode="&#x2003;" horiz-adv-x="1575" />
<glyph unicode="&#x2004;" horiz-adv-x="525" />
<glyph unicode="&#x2005;" horiz-adv-x="393" />
<glyph unicode="&#x2006;" horiz-adv-x="262" />
<glyph unicode="&#x2007;" horiz-adv-x="262" />
<glyph unicode="&#x2008;" horiz-adv-x="196" />
<glyph unicode="&#x2009;" horiz-adv-x="315" />
<glyph unicode="&#x200a;" horiz-adv-x="87" />
<glyph unicode="&#x2010;" d="M0 436q0 10 16 72q14 54 52 92q28 28 153 37q140 10 271 10q101 0 253 -4q34 -1 65 -2t46 -1.5t18 -0.5q15 0 35 7t25 7q10 0 10 -28q0 -35 -22 -90q-22 -56 -41 -72q-17 -17 -103 -17q-60 0 -221 11q-147 10 -252 10q-215 0 -266 -51q-6 -6 -12 -6q-27 0 -27 26z" />
<glyph unicode="&#x2011;" d="M0 436q0 10 16 72q14 54 52 92q28 28 153 37q140 10 271 10q101 0 253 -4q34 -1 65 -2t46 -1.5t18 -0.5q15 0 35 7t25 7q10 0 10 -28q0 -35 -22 -90q-22 -56 -41 -72q-17 -17 -103 -17q-60 0 -221 11q-147 10 -252 10q-215 0 -266 -51q-6 -6 -12 -6q-27 0 -27 26z" />
<glyph unicode="&#x2012;" d="M0 436q0 10 16 72q14 54 52 92q28 28 153 37q140 10 271 10q101 0 253 -4q34 -1 65 -2t46 -1.5t18 -0.5q15 0 35 7t25 7q10 0 10 -28q0 -35 -22 -90q-22 -56 -41 -72q-17 -17 -103 -17q-60 0 -221 11q-147 10 -252 10q-215 0 -266 -51q-6 -6 -12 -6q-27 0 -27 26z" />
<glyph unicode="&#x2013;" horiz-adv-x="1071" d="M0 436q0 10 17 72q16 54 57 92q30 28 166 37q152 10 294 10q109 0 274 -4q37 -1 70.5 -2t50 -1.5t19.5 -0.5q16 0 38 7t27 7q11 0 11 -28q0 -35 -24 -90q-24 -56 -44 -72q-19 -17 -112 -17q-65 0 -240 11q-159 10 -273 10q-233 0 -289 -51q-6 -6 -13 -6q-29 0 -29 26z " />
<glyph unicode="&#x2014;" horiz-adv-x="2095" d="M0 436q0 10 35 72q30 54 113 92q60 28 331 37q304 10 588 10q220 0 549 -4q74 -1 141.5 -2t100 -1.5t38.5 -0.5q33 0 76 7t54 7q22 0 22 -28q0 -35 -48 -90q-47 -56 -89 -72q-37 -17 -223 -17q-130 0 -480 11q-319 10 -546 10q-467 0 -577 -51q-13 -6 -26 -6 q-59 0 -59 26z" />
<glyph unicode="&#x2018;" horiz-adv-x="276" d="M0 1112q0 78 96 188q95 109 152 109q16 0 16 -20q0 -21 -57 -107q-55 -88 -55 -172q0 -30 10 -43q2 0 2 -6q0 -25 -39 -25q-63 0 -94 23.5t-31 52.5z" />
<glyph unicode="&#x2019;" horiz-adv-x="438" d="M119 1055q0 18 55 106q57 86 57 174q0 31 -10 41q-2 2 -2 6q0 27 41 27q61 0 92 -25t31 -53q0 -81 -98 -188q-94 -107 -150 -107q-16 0 -16 19z" />
<glyph unicode="&#x201a;" horiz-adv-x="276" d="M0 1112q0 78 96 188q95 109 152 109q16 0 16 -20q0 -21 -57 -107q-55 -88 -55 -172q0 -30 10 -43q2 0 2 -6q0 -25 -39 -25q-63 0 -94 23.5t-31 52.5z" />
<glyph unicode="&#x201c;" horiz-adv-x="358" d="M0 1098q0 76 96 186q95 109 152 109q16 0 16 -19t-39 -78q-40 -57 -61 -129q44 52 88.5 86.5t73.5 34.5q16 0 16 -20q0 -21 -57 -107q-56 -89 -56 -172q0 -30 11 -41l2 -6q0 -27 -41 -27q-62 0 -92.5 23.5t-30.5 52.5q0 5 4 33q-82 15 -82 74z" />
<glyph unicode="&#x201d;" horiz-adv-x="358" d="M0 1040q0 20 55 105q58 88 58 174q0 32 -11 43q-2 2 -2 6q0 25 41 25q61 0 92 -24t31 -52q0 -1 -4 -33q82 -18 82 -72q0 -83 -98 -190q-94 -107 -150 -107q-16 0 -16 21q0 14 37 72q37 56 63 133q-45 -52 -89.5 -85.5t-72.5 -33.5q-16 0 -16 18z" />
<glyph unicode="&#x201e;" horiz-adv-x="358" d="M0 1040q0 20 55 105q58 88 58 174q0 32 -11 43q-2 2 -2 6q0 25 41 25q61 0 92 -24t31 -52q0 -1 -4 -33q82 -18 82 -72q0 -83 -98 -190q-94 -107 -150 -107q-16 0 -16 21q0 14 37 72q37 56 63 133q-45 -52 -89.5 -85.5t-72.5 -33.5q-16 0 -16 18z" />
<glyph unicode="&#x202f;" horiz-adv-x="315" />
<glyph unicode="&#x205f;" horiz-adv-x="393" />
<glyph unicode="&#x25fc;" horiz-adv-x="942" d="M0 0v942h942v-942h-942z" />
</font>
</defs>
</svg>
